<?xml version="1.0" encoding="UTF-8"?>
<svg
  version="1.1"
  xmlns="http://www.w3.org/2000/svg">
  <symbol id="unicycle" viewBox="0 0 1000 1127.1101">
    <g
      id="g1"
      transform="matrix(1.9904946,0,0,1.9904946,50.000001,56.378645)">
      <g
        id="g2"
        transform="matrix(0.5023877,0,0,0.5023877,-25.119385,-28.323938)"
        stroke="currentColor"
      >
        <path
          id="m"
          style="stroke-width:40;stroke-linecap:butt"
          d="M 518.60798,758.84437 C 370.1846,695.41768 264.21923,642.64848 264.21923,642.64848"
        />
        <path
          id="t"
          style="stroke-width:55.9;stroke-linecap:round"
          d="M 706.01632,208.3948 C 587.90491,525.13074 396.58162,727.48729 396.58162,727.48729"
        />
        <path
          id="lc"
          style="stroke-width:35;stroke-linecap:round"
          d="M 331.68416,598.44352 209.91028,678.01245"
        />
        <path
          id="rc"
          style="stroke-width:35;stroke-linecap:round"
          d="M 591.86191,718.4284 455.87929,788.84059"
        />
      </g>
      <path
        id="s"
        d="m 243.48431,53.006033 c -8.63969,-11.440596 -4.75403,-30.767417 5.76449,-39.476675 9.2085,-9.2094784 22.31441,-15.6012428 35.98907,-13.11251971 17.93976,5.51713711 29.14846,33.90567471 41.63642,37.66841271 11.56496,5.023835 35.03719,20.193245 35.03719,20.193245 0,0 115.21367,-0.593951 83.30444,50.032974 -21.75699,14.45957 -70.35933,6.31403 -103.22281,-0.96753 -37.76392,-7.756086 -71.09876,-27.602732 -98.5088,-54.337907 z"
      />
      <path
        id="w"
        fill="none"
        stroke="currentColor"
        style="stroke-width:30.1433;stroke-linecap:butt"
        d="m 288.9004,218.35163 c 1.59994,1.16498 3.37736,3.35414 5.01874,5.18633 18.03452,20.13092 42.48766,56.93832 42.48766,108.5427 0,88.30911 -71.77232,159.89779 -160.30795,159.89779 -88.535634,0 -160.30795,-71.58868 -160.307956,-159.89779 0,-88.30912 71.772318,-159.8978 160.307956,-159.8978 29.47055,0 53.30522,7.98988 69.58424,15.81186 2.4152,1.16048 2.78902,1.45739 4.9245,2.61448"
      />
    </g>
  </symbol>
  <symbol id="logo" viewBox="0 0 2478.3 2131.4">
      <path fill="currentColor" stroke-width="1.3333"
    d="m1127.3 2074.7c-65.966-3.6689-111.35-9.1969-164.67-20.057-263.32-53.636-495.66-210.62-644.02-435.15-72.66-109.97-121.9-229.43-148.66-360.67-6.7417-33.068-7.9651-48.69-4.3251-55.23 6.2982-11.316 21.359-12.362 29.472-2.0483 2.9278 3.722 3.712 6.966 9.0117 37.278 3.8116 21.801 17.964 80.061 24.616 101.33 6.1849 19.779 12.477 38.575 17.184 51.333 2.2997 6.2333 5.3588 14.598 6.7979 18.587 12.374 34.303 45.129 102.08 69.311 143.41 96.599 165.12 239.54 298.11 411.92 383.26 24.841 12.269 65.571 30.273 81.434 35.995 3.9894 1.4391 12.354 4.4982 18.587 6.7979 31.724 11.704 59.337 20.033 99.333 29.962 80.558 19.998 151.66 28.655 235.33 28.655s154.78-8.6572 235.33-28.655c39.997-9.9286 67.609-18.257 99.333-29.962 6.2333-2.2997 14.597-5.3588 18.587-6.7979 15.863-5.7221 56.593-23.725 81.434-35.995 55.1-27.215 105.45-58.138 153.98-94.573 124.14-93.199 222.7-211.86 291.26-350.66 12.269-24.841 30.273-65.571 35.995-81.434 1.439-3.9894 4.4981-12.354 6.7978-18.587 4.7071-12.758 10.999-31.554 17.184-51.333 6.8119-21.785 20.864-79.794 24.709-102 4.1486-23.962 5.7654-28.382 11.706-32.004 9.6364-5.8753 21.156-0.8976 24.017 10.378 0.976 3.8457-10.445 61.178-18.504 92.89-62.26 244.99-213.72 458.15-424.5 597.42-146.2 96.601-310.46 152.39-488.67 165.98-19.111 1.4572-94.423 2.7399-110 1.8735zm-33.315-177.54c-2.5565-1.2853-5.3977-3.837-6.3137-5.6704-1.3039-2.6096-1.6698-38.284-1.6852-164.3l-0.02-160.97 3.608-2.364c2.9061-1.9041 6.4843-2.3641 18.392-2.3641s15.486 0.46 18.392 2.3641l3.608 2.364v145.19c0 79.856 0.3642 146.14 0.8093 147.3 0.7217 1.8808 7.4237 2.1091 61.905 2.1091 66.791 0 64.017-0.3248 66.284 7.7598 0.5511 1.9655 0.9648 7.9292 0.9195 13.253-0.065 7.5845-0.6729 10.47-2.8104 13.333l-2.7277 3.6539-77.856 0.337c-71.942 0.3115-78.209 0.1596-82.504-2zm423.38-76.67c-4.0037-3.5192-156.74-279.09-156.74-282.8 0-3.663 8.6528-11.006 19.179-16.276 9.9669-4.9898 16.782-5.8322 19.658-2.4298 1.0064 1.1911 33.092 58.641 71.301 127.67 38.209 69.026 70.318 125.67 71.353 125.87 1.0354 0.204 25.255-12.546 53.822-28.333 28.567-15.787 53.227-28.704 54.8-28.704 4.7288 0 9.476 4.8796 14.482 14.886 5.5532 11.1 5.7588 13.18 1.7389 17.59-1.65 1.8104-32.473 19.544-68.496 39.408-58.849 32.451-66.114 36.116-71.592 36.116-4.4224 0-7.0342-0.8238-9.5099-3zm-790.4-6.4204c-5.9205-1.6392-20.02-10.032-24.173-14.39-2.7059-2.8389-3.6566-4.974-3.2236-7.2392 0.79285-4.1476 172.38-299.24 176.48-303.52 2.9021-3.0229 3.4557-3.1267 8.5479-1.6009 7.2623 2.1758 19.783 9.6445 24.53 14.632 2.8236 2.9669 3.6193 4.8404 3.0216 7.1143-0.4463 1.6977-40.271 70.822-88.5 153.61-57.801 99.22-88.597 150.84-90.355 151.46-1.4667 0.5178-4.3158 0.4848-6.3314-0.073zm-241-217.02c-23.256-6.5407-44.021-21.503-60.821-43.824-10.612-14.1-59.301-96.163-60.152-101.38-0.89612-5.4985 1.6816-11.737 6.1486-14.881 7.6409-5.378 259.71-155.35 265.16-157.76 6.3896-2.8265 11.589-2.0075 16.724 2.6344 3.033 2.7417 45.089 72.67 52.143 86.701 26.991 53.686 14.266 98.745-34.533 122.27-13.786 6.6465-22.189 8.6833-35.732 8.6609-11.079-0.019-20.87-2.3352-31.176-7.3774-3.9919-1.9531-7.5791-3.23-7.9715-2.8375-0.39242 0.3924-0.0549 3.7844 0.75004 7.5377 2.1067 9.8235 1.8008 27.001-0.65002 36.501-7.0395 27.286-30.907 51.278-61.354 61.674-14.062 4.8015-35.578 5.7237-48.532 2.0804zm37.612-48.108c10.593-5.2488 23.728-16.714 28.524-24.898 9.493-16.199 9.2999-36.489-0.55397-58.221-4.3716-9.6413-34.266-60.442-36.312-61.707-1.3739-0.8492-97.251 55.471-99.933 58.703-1.0718 1.2914 3.3088 9.5942 17.619 33.394 19.679 32.729 26.505 41.816 36.657 48.801 10.407 7.1602 18.112 9.2485 32.389 8.7785 11.205-0.3689 13.699-0.9287 21.612-4.8496zm109.15-91.604c11.121-3.3014 21.464-9.0304 29.404-16.287 15.28-13.965 18.838-31.888 10.643-53.614-2.7102-7.1855-29.274-53.57-32.639-56.992-1.3633-1.3865-10.123 3.3396-46.257 24.956-24.516 14.667-45.135 27.528-45.819 28.58-1.7442 2.6819 25.599 48.243 35.135 58.545 13.823 14.933 31.412 20.193 49.533 14.813zm1257.9 103.63c-15.789-7.6039-263.68-149.15-267.46-152.72-3.206-3.026-3.8693-4.729-3.8693-9.9342 0-5.7815 3.1933-11.91 40.063-76.887 22.035-38.833 40.898-71.447 41.919-72.477 6.0692-6.1188 31.351 6.477 31.351 15.62 0 2.0765-12.891 26.198-32.079 60.027-17.644 31.106-31.792 57.304-31.441 58.219 0.3511 0.9149 19.137 12.162 41.746 24.993 51.808 29.403 47.04 26.996 49.163 24.809 0.9593-0.9882 13.813-23.076 28.563-49.084 14.75-26.008 27.545-47.748 28.433-48.313 7.0532-4.4824 30.281 7.3912 30.281 15.479 0 1.6149-12.335 24.7-27.411 51.3-15.076 26.6-27.225 49.329-26.998 50.509 0.3896 2.023 98.67 58.928 101.83 58.963 0.7843 0.013 15.784-25.332 33.333-56.312 17.549-30.98 33.302-57.752 35.005-59.492 2.5055-2.5594 4.0008-3.018 7.8191-2.3983 6.7661 1.098 19.214 8.8907 22.103 13.836 2.3317 3.9926 2.3438 4.4586 0.2249 8.634-5.6165 11.067-77.316 136.91-80.272 140.89-2.859 3.8481-9.8966 8.1942-13.264 8.1908-0.5735-6e-4 -4.6428-1.7348-9.0428-3.8539zm-866.55-333.47c-2.1375-0.6779-4.3784-2.008-4.9796-2.9558-0.6013-0.9477-1.1024-66.924-1.1137-146.61-0.011-79.69-0.3846-145.84-0.8297-147-0.7169-1.8683-6.206-2.1091-48.088-2.1091-28.289 0-48.258-0.5242-49.717-1.3052-7.1631-3.8336-7.2276-32.188-0.082-36.012 3.4004-1.8198 237.91-1.8625 241.31-0.044 3.4573 1.8503 5.386 8.3926 5.386 18.27 0 6.9009-2.2959 16.617-4.2653 18.05-0.2208 0.1607-22.601 0.6107-49.735 1l-49.333 0.7079-0.3391 146.8-0.3392 146.8-2.782 2.5177c-2.3063 2.0872-5.212 2.57-16.994 2.8237-7.8167 0.1683-15.961-0.2485-18.098-0.9264zm119.22 0.4505c-3.0142-1.1597-5.3334-4.6148-5.3334-7.9456 0-1.6352 26.062-75.168 57.915-163.41 46.247-128.11 58.595-161.02 61.29-163.34 4.2821-3.6835 14.144-4.9699 31.92-4.1636 14.184 0.6433 21.052 2.8521 22.828 7.3416 0.5185 1.3105 26.691 73.66 58.162 160.78 33.507 92.755 57.219 160.29 57.219 162.97 0 7.7148-3.4492 8.9288-23.897 8.41-15.257-0.387-17.691-0.765-20.007-3.1073-1.4707-1.4871-9.0821-20.95-17.208-44l-14.571-41.333h-140.73l-13.857 40.667c-9.9108 29.086-14.796 41.616-17.156 44-3.1063 3.1392-4.2092 3.3499-18.938 3.6162-8.602 0.1554-16.54-0.064-17.64-0.4867zm194.17-126.43c0.8452-2.2027-53.613-159.02-56.197-161.83-1.3387-1.453-2.2807 0.055-4.9988 8-1.8422 5.3847-14.518 42.092-28.169 81.573-13.651 39.48-24.481 72.33-24.068 73 0.4346 0.7029 24.399 1.2173 56.716 1.2173 48.072 0 56.07-0.2771 56.717-1.9649zm-1137.4 57.632c-0.28399-0.9167-0.82419-15.008-1.2004-31.313-0.37627-16.306-1.0605-30.256-1.5205-31-0.71032-1.1493-72.206-2.15-72.877-1.02-0.1088 0.1834-0.5588 14.133-1 31l-0.8022 30.667-37.754 0.3543c-33.126 0.3108-38.335 0.079-42.491-1.8934-9.0282-4.2841-12.212-14.415-7.1421-22.73 4.8273-7.9169 8.5214-8.8544 36.721-9.3181 13.933-0.2292 26.07-0.6921 26.971-1.0287 1.1992-0.4481 1.7347-7.4976 2-26.332l0.36231-25.72h117.33l0.97532 27.239c0.70035 19.56 1.4522 27.573 2.6667 28.423 1.8874 1.3211 54.682 0.452 56.93-0.9373 0.94596-0.5847 1.431-10.878 1.4359-30.471 8e-3 -33.449 0.92131-39.121 6.6162-41.106 3.6582-1.2752 5.3064-4.2872 5.3712-9.8152 0.0916-7.825 14.287-29.373 22.954-34.845 4.2054-2.6548 5.0514-3.9364 5.0514-7.6527 0-10.308 1.6868-17.006 4.7959-19.043 6.5555-4.2953 11.204 1.2631 11.204 13.397 0 5.0852 0.65358 7.6179 2.3333 9.0415 4.2158 3.573 12.513 7.815 13.769 7.0392 0.67704-0.4186 1.231-4.3527 1.231-8.7428 0-6.558 0.54868-8.5306 3.0758-11.058 1.6917-1.6918 3.8571-3.3363 4.812-3.6546 1.0674-0.3557 2.6804-6.2225 4.187-15.228 3.2115-19.197 9.5614-34.298 19.613-46.643 8.7826-10.786 19.517-20.95 28.645-27.122l6.3333-4.2824v-13.357c0-15.397 1.118-18.515 6.638-18.515 6.1961 0 8.0287 4.0193 8.0287 17.609 0 13.461-0.96071 11.958 18.971 29.663 10.996 9.7674 12.107 11.267 20.143 27.2 6.9649 13.809 9.1779 19.88 12.222 33.529 3.0621 13.728 4.33 17.192 7.1905 19.646 3.4085 2.9243 3.4807 3.3446 3.8976 22.667 0.23362 10.828 0.91764 20.191 1.52 20.807 0.6024 0.616 3.0738-1.784 5.4919-5.3333 2.4182-3.5494 7.2842-9.7999 10.813-13.89 5.972-6.9214 6.4166-7.9402 6.4166-14.703 0-8.3544 2.6416-13.193 7.2023-13.193 5.0958 0 7.7728 4.4188 8.6812 14.329l0.82696 9.0221 11.027 11.131c6.0646 6.1219 12.442 13.925 14.173 17.34 2.3001 4.5392 4.5284 6.821 8.2849 8.4839 2.8262 1.2511 5.849 3.4227 6.7174 4.8256 0.97524 1.5757 2.1872 15.228 3.1702 35.71 0.87527 18.237 2.0637 33.759 2.641 34.492 0.67535 0.8579 22.739 1.2815 61.879 1.188 58.015-0.1385 60.916-0.2618 62.714-2.6666 3.0769-4.1147 16.193-28.617 19.464-36.362l3.0302-7.1736-3.1191-5.8794c-3.5645-6.7192-2.9984-7.8663 4.6643-9.4506 5.8691-1.2134 4.6874 1.0236 15.743-29.803 3.8368-10.699 3.9964-11.847 2.3426-16.858-1.9834-6.0097-1.2304-8.328 2.7051-8.328 6.7107 0 9.0851-20.096 9.137-77.333 0.03-33.054-0.13883-35.591-2.617-39.333-1.7629-2.6618-2.6452-6.2301-2.6375-10.667 0.012-7.2326 0.58732-8.5712 4.6375-10.802 1.9939-1.0984 2.8348-3.2847 3.3333-8.6667 0.56376-6.0866 1.0783-7.1977 3.3333-7.1977 2.047 0 2.9943 1.3589 4.0767 5.8481 0.86782 3.5992 2.8921 7.1228 5.2639 9.1631 3.1492 2.7088 4.038 4.8089 4.8609 11.485 0.88597 7.1881 0.66202 8.6477-1.8629 12.142-2.7567 3.8154-2.8672 5.2615-2.8 36.667 0.0695 32.484 0.7154 39.32 6.239 66.028 1.5083 7.2931 2.092 8.2071 6.6051 10.344 4.0539 1.9193 4.9505 3.0521 4.9505 6.2547 0 2.1509-0.6 4.2816-1.3333 4.7348-3.3839 2.0913 1.546 19.11 9.9456 34.333 4.591 8.3208 5.3015 9 9.4148 9 4.3884 0 8.6396 2.7887 8.6396 5.6672 0 0.8123-0.69908 3.4101-1.5535 5.7729-1.4464 4.0002-1.1409 4.9715 4.4336 14.095 3.2929 5.3892 8.5898 14.268 11.771 19.731 3.181 5.4628 8.2179 12.573 11.193 15.801l5.4094 5.8685 42.922-0.8839c29.376-0.605 44.62-0.4268 48.302 0.5647 10.699 2.8809 14.219 13.579 7.0922 21.555-3.6105 4.0408-4.3316 4.2565-17.667 5.2859-7.6464 0.5902-36.53 1.2538-64.185 1.4749-58.819 0.47-53.913 1.8317-58.952-16.364-1.7112-6.1792-4.0681-13.335-5.2376-15.901-1.1694-2.5667-2.804-7.3667-3.6324-10.667-1.6029-6.3852-9.3308-15.091-15.467-17.424-6.9087-2.6266-15.507-1.4705-22.984 3.0906-9.9642 6.0782-20.073 23.701-24.202 42.194-2.136 9.5649-3.6864 13.566-6.1256 15.806l-3.2657 3h-162.31l-4.0633-3.4191c-3.6812-3.0975-7.5079-11.703-6.1682-13.871 0.29692-0.4804-0.034-6.8368-0.73537-14.125s-1.8251-25.252-2.4971-39.918c-0.71451-15.594-1.957-28.733-2.9923-31.644-2.1057-5.9202-17.679-25.022-20.4-25.022-1.0461 0-5.2711 3.45-9.3889 7.6666-6.0163 6.1608-9.4214 11.638-17.335 27.886-5.4665 11.223-11.191 21.16-12.866 22.333-4.7978 3.3605-11.386 2.6907-15.67-1.5933-5.1267-5.1267-5.6608-11.114-5.348-59.951 0.2387-37.271 0.0107-42.127-2.5074-53.28-6.2371-27.63-20.264-50.623-35.949-58.928-4.5849-2.4276-7.5958-0.8154-19.311 10.341-13.574 12.926-21.464 25.174-27.167 42.169-5.7298 17.077-7.3042 31.649-5.7137 52.883 2.9382 39.226 3.0972 50.93 0.75324 55.462-2.662 5.1476-5.8274 7.011-11.911 7.011-9.2019 0-12.25-4.696-16.244-25.025-3.3899-17.253-14.846-34.975-22.61-34.975-4.1864 0-13.925 10.695-18.82 20.667l-3.9267 8-0.33487 42c-0.18419 23.1-0.95156 45.035-1.7053 48.745-1.462 7.1958-8.2525 15.751-14.339 18.065-1.7205 0.6541-22.908 1.1893-47.083 1.1893-34 0-44.072-0.3774-44.471-1.6666zm586.31-99.611c0.57488-0.5203-0.77724-4.4106-3.0047-8.6451-2.2275-4.2345-5.0019-10.974-6.1654-14.976-2.2173-7.6271-4.936-10.062-7.7587-6.9499-1.5919 1.7552-10.116 28.264-10.116 31.458 0 1.6644 25.137 0.8396 27.045-0.8873zm698.31 98.951c-5.8153-2.9325-10.693-10.082-10.693-15.673 0-5.5944 4.8808-12.744 10.693-15.664 4.0348-2.0272 8.8479-2.3316 36.895-2.3333 17.74 0 32.532-0.4522 32.872-1.0022s0.8092-22.14 1.0438-47.979l0.4267-46.979-5.6319-5.7382c-4.2341-4.3144-5.6317-6.7896-5.6317-9.9744 0-4.4252 3.8239-7.861 7.2751-6.5366 3.6057 1.3836 4.7249-2.3816 4.7249-15.897 0-10.531 0.4551-13.948 2.032-15.257 2.7831-2.3097 150.11-0.5393 151.61 1.822 0.5388 0.8459 0.9888 7.0146 1 13.708 0.023 13.225 0.6925 14.627 7.3537 15.378 3.7219 0.42 4.0275 0.8728 4.3953 6.5132 0.3623 5.5557-0.039 6.4637-4.8096 10.878l-5.2049 4.8157-1.1529 39.122c-0.6342 21.517-1.1699 43.022-1.1904 47.789l-0.037 8.6667h21.333l1.0694-11.333c1.4035-14.871 1.7507-15.128 18.931-14.008 25.294 1.6487 56.004 2.9553 57.4 2.4423 0.7698-0.283 10.861-16.638 22.425-36.344 25.228-42.992 23.969-41.141 26.522-39.022 1.0827 0.8986 16.772 23.162 34.864 49.475 22.378 32.544 33.838 48.094 35.843 48.631 5.8864 1.5783 26.33 0.9146 27.017-0.877 0.3596-0.937-1.7066-7.1458-4.5916-13.798-10.556-24.337-14.812-44.962-14.812-71.772 0-48.442 17.185-90.059 51.26-124.13 34.075-34.075 75.691-51.26 124.13-51.26 26.819 0 47.433 4.256 71.798 14.823 11.021 4.7803 12.265 5.0567 13.731 3.0519 4.1257-5.6423 19.452-43.302 23.817-58.525 4.8116-16.778 4.8413-17.032 2.5818-22.043-2.3692-5.2539-7.9257-9.8104-20.856-17.103-8.8374-4.9838-23.076-19.666-26.603-27.432-3.3246-7.3201-3.2202-16.858 0.2591-23.678 6.3913-12.528 25.786-26.438 36.84-26.421 11.29 0.017 13.845 1.7142 28.912 19.21l14.229 16.524 16.948 7.6106c9.3216 4.1859 17.572 8.1127 18.334 8.7264 2.6083 2.0999 13.282 4.0258 29.281 5.2832 34.76 2.7318 37.448 3.2113 42.404 7.5622 2.5049 2.1994 7.1965 4.6642 10.426 5.4773 17.091 4.3035 21.333 24.986 7.5991 37.044-13.57 11.915-82.95 14.964-119.91 5.2707-3.8201-1.0017-2.9616-2.9651-17.469 39.951-2.2311 6.6-5.977 16.2-8.3243 21.333-2.3473 5.1334-5.662 12.461-7.3659 16.284l-3.0978 6.9507 12.034 12.588c33.27 34.8 49.709 75.427 49.709 122.84 0 27.679-5.3316 52.099-16.489 75.524-2.5499 5.3534-4.3476 10.2-3.9948 10.771s36.156 1.04 79.563 1.0427c75.923 0 79.083 0.104 83.19 2.6077 5.2234 3.1849 8.398 9.0015 8.398 15.387 0 6.3859-3.1746 12.202-8.398 15.387-4.149 2.5296-7.5892 2.6028-122.6 2.6077-65.309 0-118.33-0.5097-118.33-1.1436 0-0.6316 4.5171-4.6083 10.038-8.8368 25.374-19.435 43.714-47.148 52.267-78.978 3.133-11.66 3.5029-15.43 3.5029-35.703 0-20.378-0.3605-24.01-3.5703-35.969-1.9636-7.3161-6.5565-19.416-10.206-26.889-9.0536-18.536-25.658-40.479-30.626-40.473-2.3712 0-6.29 6.0227-15.557 23.898-3.5832 6.9119-9.2668 15.612-12.63 19.333-3.3634 3.7215-8.2112 10.066-10.773 14.1-2.5617 4.0333-7.6098 10.719-11.218 14.858-3.6081 4.1387-9.1364 11.196-12.285 15.684l-5.7244 8.1587 12.968 6.0188c7.1325 3.3104 14.208 6.3206 15.724 6.6893 1.7195 0.4181 6.0231-1.2488 11.44-4.4309 11.91-6.9971 19.207-9.726 26.392-9.8703 5.2302-0.1053 6.6272 0.4731 9.8436 4.0729 2.0616 2.3074 3.7484 5.0223 3.7484 6.0331 0 5.4656-19.106 17.777-52.667 33.938-27.124 13.061-30.874 13.761-37 6.9087-4.6767-5.2315-4.7429-10.576-0.1983-15.977 1.9076-2.2672 3.1783-4.8632 2.8236-5.769-0.3545-0.9058-3.7145-2.7214-7.4664-4.0344-5.7168-2.0008-7.6648-2.1348-12.028-0.8275-8.6408 2.5888-13.852 0.7475-20.757-7.3355-5.0147-5.8696-8.7115-8.4064-21.061-14.453-8.2385-4.0334-16.479-7.7744-18.312-8.3135s-5.3905-1.9327-7.9049-3.0968c-4.5451-2.1044-4.6432-2.0791-16.852 4.3555-14.153 7.4594-19.201 8.0394-24.433 2.8074-2.5644-2.5644-3.4161-4.7908-3.4161-8.9289 0-4.8081 0.7244-6.1556 5.6689-10.544 3.118-2.7669 7.9587-6.1636 10.757-7.5481 2.7982-1.3845 11.034-6.4455 18.301-11.246 38.192-25.232 39.509-25.754 47.325-18.771 3.2685 2.9204 4.1544 4.7911 4.1544 8.7721 0 5.7087-2.8209 9.4144-12.006 15.772-3.1568 2.185-5.5109 4.6712-5.2315 5.525 0.4015 1.2262 16.722 7.8781 30.358 12.373 2.8219 0.9303 17.06-11.025 29.28-24.584 5.5-6.1031 14.257-15.703 19.46-21.333 9.946-10.763 15.46-18.293 21.284-29.067 1.9336-3.5767 5.4901-10.176 7.9036-14.666 2.4135-4.4895 4.0052-8.7621 3.5373-9.4947-1.3964-2.1861-16.106-9.0874-27.444-12.876-79.075-26.421-163.78 19.909-185.74 101.59-3.1053 11.553-3.4786 15.373-3.4786 35.608 0 20.273 0.3698 24.043 3.5029 35.703 8.5525 31.83 26.893 59.543 52.267 78.978 5.5208 4.2285 10.038 8.2119 10.038 8.8516 0 0.6491-24.316 1.0095-55 0.8152l-55-0.3481-12-18.397c-6.6-10.118-14.356-22.118-17.237-26.667-20.521-32.407-29.372-45.941-31.493-48.153-2.941-3.0681-0.5062-6.6833-35.296 52.408l-24.026 40.808-123.22 0.6932-0.6938-3.0132c-0.3814-1.6574-0.8444-26.113-1.0286-54.347l-0.3351-51.333-3.6665-6.9555c-4.6607-8.8413-11.219-15.396-20.045-20.032-6.0861-3.1976-8.4552-3.6543-18.956-3.6543-10.5 0-12.869 0.4567-18.955 3.6543-8.8258 4.6369-15.384 11.191-20.045 20.032l-3.6665 6.9555-1.3334 108-50.667 0.3398c-46.071 0.3091-51.088 0.128-55.307-2zm-1329.4-133.98c-4.2406-4.5517-4.498-7.5724-2.7905-32.748 20.104-296.42 166.91-566.72 404.79-745.31 143.88-108.02 316.31-176.42 494.67-196.22 43.479-4.8272 64.76-5.9352 114-5.9352 49.241 0 70.521 1.1079 114 5.9352 297.59 33.04 567.65 198.48 733.35 449.26 61.372 92.882 110.04 201.91 135.34 303.18 3.7753 15.114 4.1033 17.808 2.7283 22.397-2.811 9.3819-13.597 13.149-22.357 7.8075-4.6233-2.819-5.3505-4.7531-15.561-41.385-9.8552-35.358-13.676-47.115-25.778-79.333-59.556-158.55-159.94-300.27-289.06-408.07-59.927-50.035-125.31-92.615-195.31-127.19-24.841-12.269-65.571-30.273-81.434-35.995-3.9895-1.4391-12.354-4.4981-18.587-6.7979-31.724-11.704-59.337-20.033-99.333-29.962-80.558-19.998-151.66-28.655-235.33-28.655s-154.78 8.6572-235.33 28.655c-39.997 9.9286-67.609 18.257-99.333 29.962-6.2333 2.2997-14.597 5.3588-18.587 6.7979-15.863 5.7221-56.593 23.725-81.434 35.995-138.8 68.557-257.47 167.12-350.66 291.26-36.434 48.531-67.358 98.879-94.573 153.98-12.269 24.841-30.273 65.571-35.995 81.434-1.4391 3.9894-4.4982 12.354-6.7979 18.587-11.704 31.724-20.033 59.337-29.962 99.333-15.027 60.533-23.187 113.41-27.219 176.35-0.71698 11.194-1.6759 20.956-2.1308 21.692-0.45497 0.7361-3.7648 2.8271-7.3552 4.6464-8.8189 4.4689-19.953 4.6244-23.95 0.3345zm1557.7-138.69c-1.5001-1.65-21.46-34.414-44.355-72.808-37.517-62.915-41.637-70.396-41.718-75.765-0.077-5.0876 0.5735-6.5994 4.456-10.359 4.542-4.3983 258.04-156.32 267.27-160.18 5.7452-2.4005 10.62-1.622 15.547 2.4831 5.2568 4.3795 86.392 141.12 86.392 145.6 0 9.4917-24.782 22.393-31.025 16.151-1.035-1.035-16.779-26.879-34.986-57.43-25.573-42.91-33.612-55.416-35.334-54.965-4.0471 1.0583-87.988 51.648-87.988 53.028 0 0.7434 12.217 21.879 27.15 46.967 31.179 52.384 30.184 50.601 30.184 54.081 0 3.5254-10.763 12.841-18.052 15.625-10.804 4.126-9.6456 5.468-41.6-48.193-25.972-43.616-29.33-48.667-32.018-48.163-3.8792 0.7272-100.33 58.522-100.33 60.12 0 0.665 15.3 26.819 34 58.12 18.7 31.301 34 58.166 34 59.699 0 4.4183-6.0813 10.493-14.933 14.916-9.7308 4.8625-13.028 5.0757-16.663 1.0773zm-1098-0.771c-17.766-9.0651-272.71-154.85-275.27-157.41-4.2063-4.2063-5.22-8.5671-3.3961-14.61 1.7324-5.7393 40.119-73.579 49.503-87.486 16.482-24.426 37.664-40.897 60.147-46.774 12.574-3.2864 32.041-2.1271 45.11 2.6866 23.058 8.4931 42.388 24.276 51.128 41.745 7.0568 14.106 9.4286 26.512 8.7433 45.733-0.31142 8.735-0.13736 15.882 0.38683 15.882s4.718-1.7805 9.3195-3.9566c12.765-6.0367 20.454-7.1293 44.54-6.3286 20.736 0.6894 105.31 11.048 116.96 14.324 5.7674 1.6232 9.045 4.4865 9.045 7.9016 0 3.9266-10.645 24.027-15.67 29.589-3.9772 4.4023-5.4381 5.1365-10.221 5.1365-3.069 0-25.949-2.9568-50.845-6.5707-54.444-7.9031-67.368-8.9942-80.434-6.7903-13.419 2.2634-26.351 9.003-34.606 18.036-7.3307 8.0209-24.781 37.286-23.783 39.885 0.34827 0.9075 26.941 16.536 59.096 34.73 32.155 18.194 60.413 34.528 62.796 36.296 2.6015 1.9306 4.3329 4.3876 4.3323 6.1479-1e-3 3.7907-6.8268 18.197-12.1 25.541-5.5484 7.726-9.0444 9.2132-14.779 6.2871zm-122.16-144.9c19.696-34.044 24.442-47.191 23.418-64.88-1.3861-23.944-19.111-42.905-46.718-49.978-15.734-4.031-30.166 0.1124-43.768 12.566-8.8395 8.0931-15.818 18.26-30.379 44.262-8.7088 15.551-10.483 19.632-9.1263 20.988 3.5683 3.5683 92.413 53.498 94.798 53.276 1.714-0.1598 5.4779-5.3488 11.776-16.235zm981.49-126.43c-35.318-20.663-65.551-38.768-67.184-40.235-3.9648-3.5615-6.5096-9.8743-5.6961-14.13 0.364-1.9044 36.777-65.504 80.917-141.33 78.354-134.6 80.356-137.88 84.521-138.29 5.6525-0.55075 19.336 6.0351 27.536 13.254 5.1406 4.525 6.261 6.2752 5.8424 9.1269-0.2848 1.9406-33.038 59.371-72.786 127.62-39.748 68.253-72.268 124.92-72.268 125.93 0 1.0088 23.141 15.287 51.425 31.73s52.284 31.122 53.333 32.62c2.7267 3.8928 2.4214 6.0121-2.1972 15.255-5.169 10.344-10.904 16.243-15.664 16.112-2.1336-0.059-29.338-15.177-67.78-37.667zm-683.78 10.46c-33.032-7.2681-62.315-28.724-89.715-65.734-25.125-33.937-43.91-74.103-50.432-107.83-3.5317-18.263-3.0206-44.404 1.1823-60.477 10.167-38.879 35.149-69.056 76.559-92.48 53.744-30.4 101.5-30.605 146.15-0.62614 10.574 7.0993 34.098 30.688 44.332 44.452 17.155 23.074 33.653 53.828 42.48 79.188 17.324 49.77 13.955 93.112-10.124 130.26-21.537 33.223-70.935 65.323-112.88 73.352-12.076 2.3115-36.828 2.2596-47.549-0.1zm59.278-44.715c31.143-10.458 57.089-31.015 68.03-53.9 13.363-27.95 12.362-57.417-3.2566-95.865-15.878-39.087-47.198-81.342-72.051-97.206-28.629-18.275-59.274-19.622-90.667-3.9839-23.798 11.855-40.178 27.16-49.122 45.899-6.6487 13.931-8.541 20.688-9.7289 34.74-2.772 32.793 15.311 79.661 47.2 122.34 20.356 27.241 43.797 44.996 66.144 50.099 11.49 2.6238 32.357 1.6056 43.451-2.1201zm301.72-46.783c-45.888-5.3378-80.77-30.966-94.756-69.619-9.0576-25.032-8.6742-18.861-9.2113-148.24-0.3978-95.844-0.1637-117.77 1.2781-119.74 4.4343-6.046 32.071-6.7001 41.027-0.97112 1.7438 1.1154 2.0902 16.189 2.7041 117.66 0.7878 130.23 0.1595 121.84 10.742 143.45 12.138 24.793 34.224 38.128 65.887 39.78 45.513 2.3743 75.986-20.002 84.686-62.184 2.4713-11.983 2.6132-18.677 2.6298-124.08 0.013-87.073 0.3816-111.88 1.6842-113.56 3.5581-4.5878 23.645-6.6848 34.679-3.6204 9.7639 2.7116 9.1949-5.2895 8.638 121.47-0.4793 109.11-0.6127 114.28-3.2444 125.79-6.2283 27.231-16.637 46.284-34.548 63.239-9.2476 8.7536-14.062 12.106-24.99 17.401-25.423 12.318-55.622 16.897-87.206 13.223z"
  />
  </symbol>
</svg>
