<?xml version="1.0" encoding="UTF-8" standalone="no"?>
<svg
   version="1.1"
   viewBox="0 0 2000 2000"
   id="svg1"
   width="2000"
   height="2000"
   xmlns="http://www.w3.org/2000/svg"
   xmlns:svg="http://www.w3.org/2000/svg">
  <path
     fill="#fefefe"
     stroke-width="1.3333"
     d="m 910.08323,1844.0853 c -54.8546,-3.0509 -92.594,-7.6477 -136.9327,-16.6785 -218.96594,-44.6015 -412.1702,-175.1428 -535.54019,-361.8526 -60.42103,-91.4465 -101.36696,-190.7845 -123.61947,-299.9182 -5.60611,-27.4979 -6.62344,-40.4885 -3.59657,-45.9269 5.23732,-9.41 17.76126,-10.2798 24.50769,-1.7033 2.43463,3.095 3.08674,5.7926 7.49375,30.9988 3.16957,18.1288 14.93812,66.5754 20.46964,84.2618 5.14311,16.4474 10.37536,32.0774 14.2895,42.6864 1.91234,5.1834 4.45616,12.1391 5.65285,15.4562 10.2897,28.5249 37.5274,84.8854 57.63614,119.2538 80.3277,137.3069 199.19148,247.8958 342.53551,318.703 20.65674,10.2024 54.52611,25.1738 67.71712,29.9319 3.31742,1.1967 10.27307,3.7406 15.45617,5.6529 26.38036,9.7326 49.34218,16.6586 82.60119,24.9151 66.98867,16.6295 126.11417,23.8283 195.69057,23.8283 69.57647,0 128.70857,-7.1989 195.69067,-23.8283 33.2598,-8.2562 56.2208,-15.1817 82.6012,-24.9151 5.1833,-1.9123 12.1382,-4.4562 15.4561,-5.6529 13.191,-4.7582 47.0604,-19.7287 67.7172,-29.9319 45.8188,-22.6309 87.6878,-48.3451 128.0433,-78.643 103.2297,-77.5004 185.188,-176.1739 242.1997,-291.5942 10.2024,-20.6567 25.1737,-54.5261 29.9319,-67.7171 1.1966,-3.3174 3.7405,-10.2731 5.6528,-15.4562 3.9142,-10.609 9.1463,-26.239 14.2895,-42.6864 5.6645,-18.1155 17.3496,-66.3534 20.547,-84.8189 3.4498,-19.9258 4.7942,-23.6013 9.7342,-26.6132 8.0132,-4.8857 17.5924,-0.7464 19.9715,8.6299 0.8116,3.1979 -8.6856,50.8731 -15.3871,77.2434 -51.7729,203.7235 -177.7207,380.9785 -352.9965,496.7896 -121.5739,80.3294 -258.1656,126.7212 -406.3577,138.0221 -15.89187,1.2117 -78.51817,2.2784 -91.47137,1.5579 z m -27.7034,-147.6348 c -2.1258,-1.0688 -4.4885,-3.1907 -5.2502,-4.7153 -1.0842,-2.17 -1.3885,-31.8354 -1.4013,-136.625 l -0.017,-133.856 3.0002,-1.9658 c 2.4166,-1.5833 5.3921,-1.9659 15.294,-1.9659 9.902,0 12.8776,0.3826 15.2941,1.9659 l 3.0002,1.9658 v 120.734 c 0,66.4049 0.3029,121.5239 0.673,122.4885 0.6001,1.564 6.1732,1.7539 51.4776,1.7539 55.54057,0 53.23387,-0.2701 55.11897,6.4527 0.4583,1.6344 0.8023,6.5936 0.7647,11.0206 -0.054,6.307 -0.5596,8.7065 -2.3371,11.0872 l -2.2682,3.0384 -64.74177,0.2803 c -59.824,0.259 -65.0353,0.1327 -68.6069,-1.6631 z m 352.06517,-63.7556 c -3.3293,-2.9264 -130.3384,-232.0796 -130.3384,-235.1647 0,-3.046 7.1953,-9.1521 15.9484,-13.5344 8.2881,-4.1493 13.9552,-4.8499 16.3468,-2.0206 0.8369,0.9905 27.5179,48.7635 59.2909,106.1651 31.773,57.3991 58.4735,104.5019 59.3342,104.6682 0.861,0.1697 21.001,-10.4327 44.7561,-23.5605 23.7552,-13.1278 44.2614,-23.8691 45.5694,-23.8691 3.9323,0 7.8799,4.0577 12.0427,12.3786 4.6178,9.2303 4.7887,10.96 1.446,14.6271 -1.3721,1.5055 -27.0032,16.252 -56.9585,32.7701 -48.9363,26.9849 -54.9776,30.0325 -59.5329,30.0325 -3.6775,0 -5.8493,-0.685 -7.908,-2.4946 z m -657.26366,-5.3389 c -4.92324,-1.3631 -16.6478,-8.3422 -20.10126,-11.9662 -2.25012,-2.3607 -3.04068,-4.1361 -2.68061,-6.0198 0.6593,-3.4489 143.34402,-248.8355 146.75341,-252.3946 2.41327,-2.5137 2.87362,-2.6 7.10808,-1.3312 6.03902,1.8093 16.45072,8.02 20.39812,12.1674 2.34799,2.4671 3.00966,4.025 2.51264,5.9159 -0.37112,1.4117 -33.48768,58.8926 -73.59291,127.7357 -48.0649,82.5072 -73.67358,125.4322 -75.13545,125.9478 -1.21965,0.4306 -3.58884,0.4032 -5.26493,-0.061 z M 376.77578,1446.8912 c -19.33872,-5.439 -36.60603,-17.881 -50.57621,-36.4422 -8.8245,-11.725 -49.31224,-79.9652 -50.0199,-84.3034 -0.74517,-4.5723 1.39835,-9.76 5.11292,-12.3744 6.35386,-4.4722 215.96402,-129.1826 220.49601,-131.1867 5.31333,-2.3504 9.63693,-1.6693 13.90698,2.1907 2.52212,2.2799 37.49414,60.4293 43.35995,72.0969 22.44459,44.6431 11.86301,82.1122 -28.71621,101.6746 -11.46386,5.527 -18.45144,7.2207 -29.71324,7.2021 -9.21283,-0.016 -17.35462,-1.9419 -25.92466,-6.1347 -3.3195,-1.6242 -6.30246,-2.686 -6.62877,-2.3596 -0.32632,0.3263 -0.0456,3.147 0.6237,6.268 1.75185,8.1689 1.49747,22.453 -0.54053,30.3528 -5.85375,22.6899 -25.70097,42.6406 -51.01943,51.2855 -11.69337,3.9927 -29.58518,4.7596 -40.35718,1.73 z m 31.27657,-40.0046 c 8.8087,-4.3647 19.73122,-13.8987 23.71937,-20.7042 7.89398,-13.4704 7.73341,-30.3427 -0.46066,-48.4141 -3.63524,-8.0173 -28.49417,-50.2611 -30.19554,-51.313 -1.14248,-0.7062 -80.86988,46.1274 -83.10012,48.815 -0.89127,1.0738 2.75146,7.9781 14.65122,27.769 16.36424,27.2161 22.04046,34.7725 30.48244,40.5809 8.65403,5.9541 15.06118,7.6907 26.93334,7.2998 9.31761,-0.3067 11.39152,-0.7722 17.97164,-4.0327 z m 90.76459,-76.1741 c 9.24776,-2.7453 17.84857,-7.5093 24.45114,-13.5436 12.70622,-11.6127 15.6649,-26.5167 8.85028,-44.5832 -2.25369,-5.9751 -24.34304,-44.5465 -27.14123,-47.3921 -1.13367,-1.153 -8.41787,2.777 -38.4654,20.7523 -20.38648,12.1965 -37.53238,22.8912 -38.10117,23.766 -1.4504,2.2301 21.28706,40.1168 29.2168,48.6836 11.49464,12.4176 26.12092,16.7916 41.18958,12.3178 z m 1046.01716,86.1744 c -13.1294,-6.3231 -219.2653,-124.0269 -222.4086,-126.9956 -2.6659,-2.5163 -3.2175,-3.9324 -3.2175,-8.2609 0,-4.8076 2.6554,-9.9038 33.3147,-63.936 18.3234,-32.2919 34.0091,-59.4123 34.8581,-60.2688 5.0469,-5.0882 26.0702,5.386 26.0702,12.9889 0,1.7267 -10.7196,21.7852 -26.6756,49.9159 -14.672,25.8665 -26.4369,47.6517 -26.145,48.4125 0.292,0.7608 15.9135,10.1135 34.7142,20.7832 43.0814,24.4503 39.1166,22.4487 40.8819,20.6301 0.7978,-0.8217 11.4864,-19.189 23.7518,-40.8162 12.2655,-21.6272 22.9053,-39.7052 23.6437,-40.1751 5.8652,-3.7274 25.1805,6.1462 25.1805,12.8717 0,1.3429 -10.2573,20.5395 -22.7939,42.659 -12.5366,22.1194 -22.6392,41.0199 -22.4504,42.0011 0.324,1.6823 82.0499,49.0021 84.6776,49.0312 0.6522,0.011 13.1253,-21.065 27.7183,-46.8267 14.593,-25.7617 27.6926,-48.0242 29.1087,-49.4711 2.0835,-2.1283 3.3269,-2.5096 6.5021,-1.9943 5.6264,0.9131 15.9775,7.3931 18.3799,11.5054 1.9389,3.3201 1.949,3.7076 0.187,7.1797 -4.6704,9.2029 -64.2927,113.8487 -66.7508,117.1583 -2.3775,3.1999 -8.2296,6.8139 -11.0298,6.8111 -0.4769,-5e-4 -3.8608,-1.4426 -7.5196,-3.2047 z M 824.24733,1139.5871 c -1.7775,-0.5637 -3.6409,-1.6697 -4.1409,-2.4579 -0.5,-0.7881 -0.9167,-55.6512 -0.9261,-121.9148 -0.01,-66.26683 -0.3198,-121.27443 -0.6899,-122.23903 -0.5962,-1.5536 -5.1607,-1.7539 -39.98799,-1.7539 -23.52395,0 -40.12934,-0.4359 -41.34258,-1.0853 -5.95654,-3.1879 -6.01018,-26.7662 -0.0682,-29.9461 2.82763,-1.5133 197.83607,-1.5488 200.66337,-0.037 2.8749,1.5386 4.4788,6.9789 4.4788,15.1926 0,5.7385 -1.9092,13.818 -3.5469,15.0096 -0.1836,0.1336 -18.794,0.5078 -41.3575,0.8316 l -41.0233,0.5886 -0.282,122.07283 -0.2821,122.0728 -2.3134,2.0936 c -1.9178,1.7356 -4.334,2.1371 -14.1315,2.348 -6.5,0.14 -13.2725,-0.2066 -15.0495,-0.7703 z m 99.1384,0.3746 c -2.5065,-0.9643 -4.4351,-3.8374 -4.4351,-6.6072 0,-1.3597 21.6721,-62.5066 48.1597,-135.88493 38.45707,-106.531 48.72517,-133.8976 50.96617,-135.8268 3.5608,-3.063 11.7616,-4.1327 26.5434,-3.4622 11.7948,0.5349 17.5059,2.3716 18.9828,6.1049 0.4311,1.0898 22.1951,61.2526 48.3651,133.698 27.863,77.13123 47.5809,133.29053 47.5809,135.51903 0,6.4153 -2.8682,7.4249 -19.8717,6.9934 -12.6871,-0.3218 -14.7111,-0.6361 -16.637,-2.5839 -1.223,-1.2366 -7.5523,-17.4211 -14.3095,-36.5885 l -12.1166,-34.3708 H 979.58873 l -11.5229,33.817 c -8.2414,24.1867 -12.3038,34.6061 -14.2662,36.5885 -2.5831,2.6104 -3.5002,2.7857 -15.7481,3.0071 -7.1531,0.1292 -13.754,-0.053 -14.6687,-0.4047 z m 161.46357,-105.1339 c 0.7029,-1.8316 -44.5823,-132.23443 -46.7311,-134.57113 -1.1132,-1.2082 -1.8965,0.046 -4.1567,6.6525 -1.5319,4.4777 -12.0726,35.002 -23.4242,67.8327 -11.35157,32.82993 -20.35737,60.14663 -20.01397,60.70383 0.3614,0.5845 20.28917,1.0122 47.16267,1.0122 39.9747,0 46.6255,-0.2304 47.1635,-1.6339 z m -945.81438,47.9244 c -0.23616,-0.7623 -0.68537,-12.48 -0.99821,-26.0386 -0.31289,-13.5594 -0.88186,-25.1596 -1.26438,-25.7783 -0.59067,-0.9557 -60.043501,-1.7878 -60.601471,-0.8482 -0.0905,0.1525 -0.46468,11.7524 -0.83156,25.7783 l -0.66708,25.5014 -31.39465,0.2946 c -27.5462,0.2585 -31.87779,0.066 -35.3337401,-1.5744 -7.50748001,-3.5625 -10.15499,-11.9869 -5.93908,-18.9014 4.01418,-6.5833 7.08604,-7.3629 30.5356601,-7.7485 11.5861,-0.1906 21.67872,-0.5755 22.42796,-0.8554 0.9972,-0.3726 1.4425,-6.2347 1.66311,-21.8966 l 0.30128,-21.3877 H 154.4995 l 0.81103,22.6508 c 0.58239,16.2653 1.20759,22.9286 2.21752,23.6354 1.56948,1.0986 45.47127,0.3759 47.34062,-0.7794 0.78662,-0.4862 1.18996,-9.0457 1.19403,-25.3384 0.007,-27.8148 0.76612,-32.53143 5.50176,-34.18213 3.042,-1.0604 4.41258,-3.565 4.46646,-8.1619 0.0762,-6.5069 11.88048,-24.4253 19.08759,-28.9756 3.49704,-2.2076 4.20054,-3.2734 4.20054,-6.3637 0,-8.5717 1.40267,-14.1415 3.98807,-15.8354 5.45128,-3.5717 9.31678,1.0504 9.31678,11.1404 0,4.2287 0.54349,6.3348 1.94027,7.5186 3.50569,2.9711 10.40529,6.4986 11.44973,5.8535 0.563,-0.3481 1.02365,-3.6196 1.02365,-7.2702 0,-5.4533 0.45626,-7.0937 2.5577,-9.1953 1.40675,-1.4069 3.20741,-2.7744 4.00146,-3.0391 0.88761,-0.2957 2.22891,-5.1743 3.48174,-12.6629 2.67055,-15.9635 7.95086,-28.5208 16.30935,-38.7864 7.30324,-8.9692 16.22952,-17.4212 23.81999,-22.5535 l 5.26651,-3.5611 v -11.1071 c 0,-12.8035 0.92968,-15.3963 5.51988,-15.3963 5.15242,0 6.67633,3.3423 6.67633,14.6429 0,11.1936 -0.79888,9.9438 15.7755,24.6665 9.14381,8.1222 10.06767,9.3692 16.75008,22.6184 5.79172,11.483 7.63196,16.5314 10.1633,27.8813 2.54632,11.4156 3.60065,14.2962 5.97932,16.3368 2.83437,2.4317 2.89441,2.7812 3.24108,18.8489 0.19427,9.0041 0.76308,16.79 1.26397,17.3023 0.50093,0.5122 2.55605,-1.4835 4.56684,-4.435 2.01087,-2.9515 6.05724,-8.1492 8.99164,-11.5503 4.96606,-5.7556 5.33578,-6.6028 5.33578,-12.2264 0,-6.9472 2.19664,-10.9708 5.98913,-10.9708 4.23745,0 6.46353,3.6745 7.21892,11.9154 l 0.68767,7.5024 9.16959,9.2561 c 5.04307,5.0907 10.34625,11.5794 11.78568,14.4192 1.91267,3.7746 3.76563,5.6721 6.88938,7.0549 2.35015,1.0403 4.86378,2.8462 5.58591,4.0127 0.81096,1.3103 1.81878,12.66303 2.6362,29.69503 0.72784,15.1651 1.71609,28.0726 2.19615,28.6821 0.56159,0.7134 18.9088,1.0656 51.456,0.9879 48.24285,-0.1152 50.6552,-0.2177 52.15034,-2.2174 2.55863,-3.4217 13.46543,-23.7967 16.18546,-30.2372 l 2.51978,-5.9652 -2.59371,-4.8891 c -2.96409,-5.5874 -2.49334,-6.5413 3.87864,-7.8587 4.8805,-1.009 3.89784,0.8512 13.09122,-24.78303 3.19052,-8.8968 3.32324,-9.8514 1.94801,-14.0184 -1.64931,-4.9974 -1.02315,-6.9252 2.24945,-6.9252 5.58034,0 7.55479,-16.711 7.59795,-64.3069 0.0249,-27.4863 -0.11545,-29.596 -2.17619,-32.7077 -1.46596,-2.2134 -2.19964,-5.1807 -2.19324,-8.8702 0.01,-6.0143 0.48839,-7.1274 3.85635,-8.9825 1.65805,-0.9134 2.35731,-2.7314 2.77184,-7.2069 0.4688,-5.0613 0.89667,-5.9853 2.77183,-5.9853 1.7022,0 2.48994,1.13 3.39001,4.8631 0.72165,2.9929 2.40495,5.923 4.37724,7.6196 2.61875,2.2525 3.35784,3.9989 4.04213,9.5505 0.73673,5.9773 0.5505,7.191 -1.54911,10.0968 -2.29236,3.1727 -2.38425,4.3752 -2.32837,30.4907 0.0578,27.0123 0.5949,32.6969 5.1881,54.9061 1.25424,6.0647 1.73962,6.8247 5.49252,8.6017 3.37106,1.596 4.11663,2.538 4.11663,5.2011 0,1.7886 -0.49893,3.5604 -1.10872,3.9373 -2.81391,1.739 1.28559,15.8911 8.27035,28.5499 3.81769,6.9192 4.40851,7.484 7.82896,7.484 3.64921,0 7.18433,2.31903 7.18433,4.71263 0,0.6755 -0.58133,2.8357 -1.29183,4.8005 -1.20276,3.3264 -0.94872,4.1341 3.6868,11.7208 2.73824,4.4815 7.14292,11.8647 9.78827,16.4075 2.64519,4.5426 6.83367,10.4552 9.30763,13.1395 l 4.49824,4.88 35.69214,-0.7351 c 24.42786,-0.503 37.10414,-0.3549 40.16593,0.4696 8.89685,2.3957 11.82393,11.2918 5.89758,17.9243 -3.00234,3.3601 -3.60198,3.5395 -14.69114,4.3955 -6.35843,0.4908 -30.37683,1.0426 -53.37357,1.2265 -48.91143,0.3908 -44.83181,1.5231 -49.02203,-13.6077 -1.42296,-5.1383 -3.38286,-11.0888 -4.35537,-13.2226 -0.97242,-2.1343 -2.33169,-6.1258 -3.02055,-8.8702 -1.33291,-5.3097 -7.7591,-12.549 -12.86171,-14.4891 -5.74499,-2.1841 -12.89498,-1.2228 -19.11254,2.57 -8.28581,5.0544 -16.69187,19.7088 -20.12537,35.0868 -1.77621,7.9538 -3.06546,11.2809 -5.0938,13.1436 l -2.71562,2.4947 H 445.71728 l -3.37887,-2.8432 c -3.06113,-2.5757 -6.24326,-9.7317 -5.12922,-11.5345 0.24691,-0.3995 -0.0283,-5.6852 -0.6115,-11.7458 -0.58323,-6.0605 -1.51768,-20.9985 -2.07649,-33.1941 -0.59415,-12.9674 -1.62736,-23.89323 -2.48827,-26.31393 -1.75101,-4.923 -14.70112,-20.8072 -16.96379,-20.8072 -0.86989,0 -4.38323,2.8689 -7.80742,6.3752 -5.0029,5.1231 -7.83444,9.6777 -14.41506,23.18883 -4.54571,9.3326 -9.30597,17.5958 -10.69883,18.5712 -3.98965,2.7945 -9.46812,2.2375 -13.03052,-1.3249 -4.26315,-4.2631 -4.70728,-9.2419 -4.44717,-49.85273 0.19849,-30.993 0.009,-35.0311 -2.08505,-44.3055 -5.18652,-22.9759 -16.8507,-42.0959 -29.89369,-49.002 -3.81261,-2.0187 -6.31635,-0.6781 -16.05823,8.5991 -11.28757,10.7487 -17.84856,20.9337 -22.59094,35.066 -4.76466,14.2005 -6.07387,26.318 -4.75128,43.9753 2.44329,32.6187 2.57551,42.35133 0.62637,46.11993 -2.21361,4.2805 -4.84583,5.83 -9.90469,5.83 -7.65192,0 -10.18659,-3.905 -13.50784,-20.80973 -2.8189,-14.3469 -12.34531,-29.0838 -18.80153,-29.0838 -3.48124,0 -11.57945,8.8936 -15.64993,17.1859 l -3.26528,6.6524 -0.27846,34.92553 c -0.15317,19.209 -0.79128,37.4492 -1.41806,40.5343 -1.21574,5.9837 -6.86243,13.0979 -11.92371,15.0221 -1.4307,0.5439 -19.04934,0.989 -39.15227,0.989 -28.27298,0 -36.64843,-0.3139 -36.98023,-1.3859 z m 487.55096,-82.83243 c 0.47805,-0.4326 -0.64632,-3.6676 -2.49858,-7.1889 -1.8523,-3.5212 -4.15937,-9.1255 -5.12689,-12.4534 -1.84382,-6.3424 -4.10457,-8.3671 -6.45181,-5.7792 -1.32376,1.4595 -8.41205,23.5031 -8.41205,26.15913 0,1.3841 20.90288,0.6982 22.4895,-0.73783 z m 580.68542,82.28363 c -4.8357,-2.4386 -8.8918,-8.3838 -8.8918,-13.033 0,-4.6521 4.0587,-10.5974 8.8918,-13.0256 3.3552,-1.6857 7.3576,-1.9388 30.6804,-1.9402 14.7518,0 27.0522,-0.3761 27.335,-0.8334 0.2827,-0.4574 0.6729,-18.4107 0.868,-39.8974 l 0.3548,-39.06583 -4.6833,-4.7716 c -3.5209,-3.5877 -4.6831,-5.6459 -4.6831,-8.2943 0,-3.6798 3.1798,-6.5369 6.0497,-5.4356 2.9984,1.1506 3.929,-1.9804 3.929,-13.2192 0,-8.7572 0.3785,-11.5986 1.6898,-12.6871 2.3143,-1.9207 124.8252,-0.4485 126.0725,1.5151 0.4481,0.7034 0.8223,5.833 0.8316,11.399 0.019,10.9973 0.5758,12.1632 6.115,12.7877 3.095,0.3492 3.3491,0.7258 3.655,5.4161 0.3012,4.6199 -0.033,5.3749 -3.9995,9.0457 l -4.3282,4.0045 -0.9587,32.53223 c -0.5274,17.8927 -0.9728,35.7753 -0.9899,39.7394 l -0.031,7.2068 h 17.7396 l 0.8893,-9.424 c 1.1671,-12.3661 1.4558,-12.5798 15.7422,-11.6485 21.0334,1.371 46.5706,2.4575 47.7314,2.0309 0.6402,-0.2353 9.0316,-13.8354 18.6477,-30.2221 20.9786,-35.75043 19.9317,-34.21123 22.0546,-32.44913 0.9004,0.7472 13.9469,19.2606 28.9915,41.14143 18.6086,27.0622 28.1383,39.9929 29.8055,40.4395 4.8949,1.3124 21.895,0.7605 22.4662,-0.7293 0.2991,-0.7792 -1.4191,-5.9422 -3.8181,-11.4738 -8.778,-20.2377 -12.3171,-37.3886 -12.3171,-59.68273 0,-40.2823 14.2903,-74.8893 42.6257,-103.2213 28.3353,-28.3353 62.9415,-42.6257 103.2213,-42.6257 22.3016,0 39.4433,3.5391 59.7043,12.3262 9.1646,3.9751 10.199,4.205 11.4181,2.5379 3.4307,-4.6919 16.1755,-36.0082 19.8052,-48.667 4.0011,-13.95187 4.0258,-14.16309 2.1469,-18.33003 -1.9701,-4.36892 -6.5907,-8.15792 -17.343,-14.22214 -7.3488,-4.14432 -19.189,-16.35343 -22.1219,-22.81131 -2.7646,-6.08709 -2.6778,-14.01841 0.2155,-19.68964 5.3147,-10.41776 21.4425,-21.98473 30.6346,-21.9706 9.3883,0.0141 11.5129,1.42546 24.042,15.97424 l 11.8322,13.74067 14.0933,6.32866 c 7.7514,3.48082 14.6121,6.74618 15.2458,7.25651 2.1689,1.74619 11.0447,3.34768 24.3488,4.39328 28.905,2.27166 31.1402,2.67039 35.2614,6.28842 2.083,1.82892 5.9843,3.87855 8.6698,4.55469 14.2122,3.57861 17.7397,20.77732 6.3191,30.80425 -11.2842,9.908 -68.9777,12.4434 -99.7121,4.3829 -3.1767,-0.833 -2.4628,-2.46566 -14.5265,33.2216 -1.8553,5.4883 -4.9702,13.4712 -6.9221,17.7396 -1.952,4.2687 -4.7083,10.3621 -6.1252,13.5411 l -2.576,5.7799 10.0069,10.4677 c 27.666,28.9382 41.336,62.7219 41.336,102.1486 0,23.01673 -4.4336,43.32343 -13.7116,62.80263 -2.1204,4.4517 -3.6153,8.4819 -3.3219,8.9567 0.2934,0.4748 30.0658,0.8648 66.1613,0.8671 63.1344,0 65.7621,0.086 69.1773,2.1684 4.3436,2.6485 6.9834,7.4853 6.9834,12.7952 0,5.3103 -2.6398,10.1467 -6.9834,12.7952 -3.4501,2.1035 -6.3108,2.1644 -101.949,2.1685 -54.3083,0 -98.3983,-0.4239 -98.3983,-0.951 0,-0.5252 3.7562,-3.8321 8.3472,-7.3483 21.0999,-16.1614 36.3507,-39.2063 43.463,-65.6748 2.6053,-9.696 2.9129,-12.83103 2.9129,-29.68923 0,-16.9455 -0.2998,-19.9657 -2.9689,-29.9103 -1.6329,-6.0837 -5.4521,-16.1455 -8.4869,-22.3597 -7.5286,-15.4138 -21.3361,-33.6607 -25.4673,-33.6557 -1.9718,0 -5.2305,5.0082 -12.9366,19.8726 -2.9796,5.7476 -7.7059,12.9823 -10.5026,16.0765 -2.7968,3.0946 -6.8281,8.3705 -8.9583,11.725 -2.1302,3.3539 -6.328,8.9134 -9.3285,12.3553 -3.0003,3.4415 -7.5974,9.3101 -10.2157,13.0421 l -4.7601,6.7845 10.7836,5.0049 c 5.9311,2.7528 11.8148,5.256 13.0754,5.5626 1.4299,0.3477 5.0086,-1.0385 9.5131,-3.6846 9.9038,-5.8185 15.9717,-8.0877 21.9465,-8.2077 4.3492,-0.088 5.5109,0.3934 8.1855,3.3868 1.7143,1.9188 3.117,4.1764 3.117,5.0169 0,4.545 -15.8878,14.7826 -43.7957,28.22153 -22.5552,10.8609 -25.6735,11.443 -30.7676,5.7449 -3.889,-4.3503 -3.944,-8.7945 -0.1649,-13.2858 1.5862,-1.8853 2.6429,-4.04403 2.348,-4.79723 -0.2948,-0.7533 -3.0889,-2.263 -6.2088,-3.3549 -4.7538,-1.6638 -6.3737,-1.7752 -10.002,-0.6881 -7.1853,2.1528 -11.5187,0.6216 -17.2606,-6.0999 -4.1701,-4.8809 -7.2442,-6.9904 -17.5135,-12.0185 -6.8508,-3.354 -13.7032,-6.4649 -15.2275,-6.9132 -1.5242,-0.4482 -4.4825,-1.6071 -6.5734,-2.5751 -3.7795,-1.75 -3.8611,-1.7289 -14.0134,3.6218 -11.769,6.203 -15.9667,6.6853 -20.3175,2.3345 -2.1324,-2.1324 -2.8406,-3.9838 -2.8406,-7.4249 0,-3.9982 0.6023,-5.1187 4.714,-8.7679 2.5928,-2.3008 6.6181,-5.1254 8.9451,-6.2767 2.3268,-1.1513 9.1754,-5.3598 15.2183,-9.3517 31.7589,-20.9819 32.854,-21.4159 39.3535,-15.6092 2.7179,2.4285 3.4546,3.9841 3.4546,7.2945 0,4.7472 -2.3457,7.8287 -9.9837,13.1154 -2.625,1.8169 -4.5826,3.8843 -4.3503,4.5943 0.3339,1.0197 13.9054,6.5511 25.2445,10.2889 2.3466,0.7736 14.1864,-9.1679 24.348,-20.443 4.5736,-5.0751 11.8555,-13.058 16.1821,-17.7397 8.2707,-8.95 12.8559,-15.2117 17.6989,-24.1709 1.6079,-2.9742 4.5654,-8.4619 6.5723,-12.1956 2.007,-3.7333 3.3306,-7.2862 2.9415,-7.8954 -1.1612,-1.8179 -13.3931,-7.5567 -22.8213,-10.7071 -65.7555,-21.9706 -136.1926,16.5555 -154.4536,84.478 -2.5823,9.607 -2.8927,12.7835 -2.8927,29.6101 0,16.8582 0.3075,19.99323 2.9129,29.68913 7.1119,26.4685 22.3631,49.5135 43.463,65.6748 4.5909,3.5163 8.3472,6.8287 8.3472,7.3607 0,0.5397 -20.2202,0.8394 -45.7357,0.6778 l -45.7357,-0.2894 -9.9787,-15.2982 c -5.4883,-8.4137 -11.9378,-18.3924 -14.3336,-22.1752 -17.0644,-26.9483 -24.4245,-38.2026 -26.1882,-40.042 -2.4456,-2.5513 -0.421,-5.5575 -29.3507,43.5803 l -19.979,33.9343 -102.4647,0.5764 -0.5769,-2.5057 c -0.3171,-1.3782 -0.7022,-21.7144 -0.8553,-45.1927 l -0.2787,-42.68633 -3.0489,-5.784 c -3.8756,-7.352 -9.3292,-12.8026 -16.6686,-16.6577 -5.0609,-2.659 -7.031,-3.0388 -15.763,-3.0388 -8.7314,0 -10.7013,0.3798 -15.7622,3.0388 -7.3392,3.8558 -12.7927,9.3059 -16.6686,16.6577 l -3.0489,5.784 -1.1088,89.80833 -42.1325,0.2825 c -38.3108,0.257 -42.4827,0.1065 -45.991,-1.6631 z M 101.79773,970.79117 c -3.526301,-3.785 -3.740341,-6.2969 -2.320461,-27.2319 C 116.19492,697.06877 238.27267,472.29855 436.08377,323.79055 555.72838,233.96562 699.11398,177.08703 847.43073,160.62218 c 36.1553,-4.0141 53.8517,-4.93547 94.7976,-4.93547 40.9468,0 58.64237,0.92128 94.79767,4.93547 247.4634,27.47468 472.0341,165.04769 609.8233,373.58589 51.0344,77.2368 91.5047,167.89994 112.5431,252.11186 3.1394,12.56814 3.4121,14.80834 2.2687,18.62444 -2.3375,7.8016 -11.3067,10.9341 -18.5911,6.4924 -3.8446,-2.3442 -4.4493,-3.9525 -12.9399,-34.41408 -8.1952,-29.40224 -11.3724,-39.17887 -21.4359,-65.97002 -49.5243,-131.84357 -132.9994,-249.69202 -240.3702,-339.33401 -49.8328,-41.60702 -104.2026,-77.01477 -162.4117,-105.7659 -20.6567,-10.20239 -54.5261,-25.17377 -67.7171,-29.93194 -3.3175,-1.1967 -10.2731,-3.74044 -15.4562,-5.65285 -26.3804,-9.73256 -49.3422,-16.65861 -82.6012,-24.91515 -66.9887,-16.62951 -126.1141,-23.82831 -195.69057,-23.82831 -69.5765,0 -128.7086,7.19897 -195.69063,23.82831 -33.25984,8.25621 -56.22083,15.18176 -82.60118,24.91515 -5.18335,1.91233 -12.13826,4.45615 -15.45618,5.65285 -13.19101,4.75826 -47.06038,19.72872 -67.71712,29.93194 -115.42029,57.00914 -214.10132,138.97003 -291.59424,242.19968 -30.297,40.35636 -56.01211,82.22365 -78.64297,128.04335 -10.20239,20.65674 -25.17376,54.52611 -29.93194,67.71712 -1.1967,3.31742 -3.74052,10.27307 -5.65285,15.45618 -9.73256,26.38035 -16.65861,49.34217 -24.91515,82.60118 -12.49583,50.3367 -19.28134,94.307 -22.63419,146.6453 -0.59621,9.3085 -1.39361,17.4261 -1.77188,18.0382 -0.37834,0.6121 -3.13065,2.3509 -6.11628,3.8637 -7.33343,3.7162 -16.59208,3.8455 -19.91582,0.2782 z M 1397.1161,855.46237 c -1.2474,-1.3721 -17.8452,-28.6173 -36.8838,-60.54413 -31.1975,-52.31749 -34.6235,-58.53838 -34.6909,-63.00302 -0.064,-4.23063 0.4769,-5.48778 3.7054,-8.61411 3.777,-3.65744 214.5753,-129.9892 222.2506,-133.19901 4.7775,-1.99616 8.8312,-1.34879 12.9283,2.06484 4.3713,3.64181 71.8399,117.34951 71.8399,121.07489 0,7.8929 -20.6076,18.62109 -25.7991,13.4305 -0.8606,-0.86066 -13.9527,-22.35146 -29.0929,-47.7564 -21.2654,-35.68216 -27.9503,-46.08163 -29.3822,-45.7066 -3.3654,0.88004 -73.1672,42.94833 -73.1672,44.09588 0,0.61818 10.1592,18.19366 22.5768,39.0558 25.9272,43.56035 25.0998,42.07768 25.0998,44.9715 0,2.93158 -8.9501,10.67804 -15.0113,12.9931 -8.9842,3.43101 -8.0209,4.54696 -34.5928,-40.07529 -21.5973,-36.26925 -24.3897,-40.46945 -26.6249,-40.05034 -3.2258,0.60471 -83.4302,48.66445 -83.4302,49.99328 0,0.55299 12.7228,22.30157 28.273,48.33017 15.5501,26.02864 28.2729,48.36844 28.2729,49.64324 0,3.674 -5.0569,8.7255 -12.4176,12.4035 -8.0918,4.0434 -10.8336,4.2207 -13.8563,0.8958 z m -913.051,-0.6412 C 469.29163,847.28307 257.29083,726.0544 255.16204,723.92561 c -3.49779,-3.49778 -4.34074,-7.12404 -2.82406,-12.14907 1.44059,-4.77256 33.36129,-61.18523 41.16463,-72.74971 13.70575,-20.31164 31.31982,-34.00824 50.01574,-38.89531 10.45602,-2.73283 26.64396,-1.76881 37.5116,2.23407 19.17407,7.0625 35.24809,20.18691 42.51591,34.7134 5.86814,11.72996 7.84043,22.04627 7.27057,38.02965 -0.25897,7.26367 -0.11423,13.20681 0.32167,13.20681 0.43589,0 3.92329,-1.48059 7.74971,-3.29014 10.61484,-5.01987 17.00869,-5.92843 37.03761,-5.2626 17.24319,0.57328 87.5714,9.18706 97.25906,11.91124 4.79593,1.34979 7.52144,3.73079 7.52144,6.57064 0,3.2652 -8.85194,19.97986 -13.03052,24.60498 -3.30727,3.66077 -4.52209,4.2713 -8.49935,4.2713 -2.55206,0 -21.57811,-2.45875 -42.28059,-5.46392 -45.27336,-6.57189 -56.02042,-7.4792 -66.88556,-5.64653 -11.15868,1.88215 -21.91239,7.48652 -28.77691,14.99799 -6.0959,6.66984 -20.60684,31.00548 -19.77695,33.1667 0.28961,0.75464 22.40301,13.75065 49.14177,28.88002 26.73876,15.12934 50.23693,28.71204 52.21854,30.18224 2.1633,1.6054 3.60306,3.6485 3.60256,5.1123 -8.3e-4,3.1522 -5.67688,15.1319 -10.06186,21.2389 -4.61382,6.4246 -7.52094,7.6613 -12.2896,5.2281 z M 382.48193,734.3284 c 16.37838,-28.30957 20.32495,-39.24207 19.47344,-53.9515 -1.15263,-19.91083 -15.89192,-35.67801 -38.84875,-41.55962 -13.08373,-3.35201 -25.08478,0.0935 -36.39564,10.44936 -7.35056,6.72988 -13.15359,15.18425 -25.26191,36.80643 -7.24188,12.93157 -8.71723,16.32516 -7.58905,17.45275 2.96725,2.96725 76.8468,44.48671 78.83006,44.3021 1.4253,-0.13288 4.5552,-4.44784 9.79244,-13.50035 z M 1198.6481,629.19448 c -29.369,-17.18249 -54.5095,-32.23785 -55.8674,-33.45775 -3.297,-2.96159 -5.4131,-8.21105 -4.7367,-11.74991 0.3027,-1.58362 30.5823,-54.4704 67.2872,-117.52414 65.156,-111.92775 66.8207,-114.65527 70.2842,-114.9962 4.7004,-0.45799 16.079,5.01853 22.8978,11.02147 4.2747,3.7628 5.2064,5.21819 4.8583,7.58955 -0.2369,1.61372 -27.4731,49.37045 -60.5258,106.12347 -33.0528,56.75635 -60.0951,103.87827 -60.0951,104.71814 0,0.83888 19.2431,12.71204 42.7629,26.38535 23.5198,13.67331 43.4772,25.87976 44.3495,27.12543 2.2674,3.23709 2.0135,4.99941 -1.8271,12.68542 -4.2983,8.60164 -9.0673,13.50701 -13.0255,13.39807 -1.7742,-0.0491 -24.3963,-12.62056 -56.3631,-31.32231 z m -568.60294,8.6981 c -27.46803,-6.04384 -51.81855,-23.88568 -74.60325,-54.66165 -20.8929,-28.2206 -36.51373,-61.62097 -41.93715,-89.66694 -2.93682,-15.18675 -2.51181,-36.92451 0.98315,-50.29015 8.45445,-32.33016 29.22844,-57.42409 63.66327,-76.90251 44.69127,-25.27938 84.40317,-25.44985 121.53225,-0.52068 8.7929,5.90349 28.35448,25.51887 36.86465,36.96444 14.26538,19.18737 27.98443,44.76112 35.3246,65.84944 14.40591,41.38665 11.60439,77.42806 -8.4187,108.31878 -17.90927,27.62687 -58.98659,54.31989 -93.86631,60.99647 -10.04189,1.92215 -30.62463,1.87899 -39.53976,-0.0831 z m 49.29312,-37.18313 c 25.89722,-8.69643 47.47283,-25.79078 56.57091,-44.82099 11.11212,-23.24206 10.27973,-47.74559 -2.70805,-79.71734 -13.20348,-32.50312 -39.24789,-67.64062 -59.91461,-80.83246 -23.80668,-15.19673 -49.28979,-16.31684 -75.3949,-3.31284 -19.78942,9.85812 -33.41035,22.58512 -40.84781,38.16769 -5.52878,11.58444 -7.10234,17.20328 -8.09015,28.88834 -2.30508,27.26929 12.73199,66.24277 39.24956,101.73284 16.9272,22.65248 36.41976,37.4168 55.00259,41.66024 9.55461,2.18185 26.90673,1.33516 36.13204,-1.76298 z m 250.89775,-38.90279 c -38.1585,-4.43869 -67.1649,-25.75004 -78.7951,-57.89226 -7.5319,-20.81557 -7.2131,-15.68402 -7.6597,-123.27021 -0.3308,-79.69987 -0.1362,-97.93262 1.0628,-99.57079 3.6873,-5.0276 26.6689,-5.57152 34.1163,-0.80754 1.4501,0.92752 1.7381,13.46209 2.2486,97.84115 0.6551,108.29384 0.1327,101.31707 8.9326,119.28704 10.0935,20.61683 28.4593,31.70566 54.7889,33.07939 37.8467,1.97437 63.18677,-16.63283 70.42137,-51.70962 2.055,-9.96456 2.173,-15.53102 2.1868,-103.17976 0.011,-72.40628 0.3173,-93.03474 1.4005,-94.43176 2.9588,-3.81503 19.6622,-5.5588 28.8376,-3.01058 8.1193,2.25486 7.6461,-4.39852 7.183,101.00939 -0.3986,90.73133 -0.5095,95.03049 -2.6979,104.60173 -5.1792,22.64416 -13.8346,38.48784 -28.7287,52.58691 -7.6899,7.27913 -11.6933,10.06685 -20.7806,14.46995 -21.14067,10.24314 -46.25287,14.05084 -72.51687,10.9957 z"
     id="path1" />
</svg>
