<?xml version="1.0" encoding="UTF-8"?>
<svg
  version="1.1"
  viewBox="0 0 1000 1127.1101"
  width="1000"
  height="1127.1101"
  xmlns="http://www.w3.org/2000/svg"
  xmlns:svg="http://www.w3.org/2000/svg">

  <g
    id="g1"
    transform="matrix(1.9904946,0,0,1.9904946,50.000001,56.378645)">
    <g
      id="g2"
      transform="matrix(0.5023877,0,0,0.5023877,-25.119385,-28.323938)"
      stroke="currentColor"
    >
      <path
        id="m"
        style="stroke-width:40;stroke-linecap:butt"
        d="M 518.60798,758.84437 C 370.1846,695.41768 264.21923,642.64848 264.21923,642.64848"
      />
      <path
        id="t"
        style="stroke-width:55.9;stroke-linecap:round"
        d="M 706.01632,208.3948 C 587.90491,525.13074 396.58162,727.48729 396.58162,727.48729"
      />
      <path
        id="lc"
        style="stroke-width:35;stroke-linecap:round"
        d="M 331.68416,598.44352 209.91028,678.01245"
      />
      <path
        id="rc"
        style="stroke-width:35;stroke-linecap:round"
        d="M 591.86191,718.4284 455.87929,788.84059"
      />
    </g>
    <path
      id="s"
      fill="currentColor"
      d="m 243.48431,53.006033 c -8.63969,-11.440596 -4.75403,-30.767417 5.76449,-39.476675 9.2085,-9.2094784 22.31441,-15.6012428 35.98907,-13.11251971 17.93976,5.51713711 29.14846,33.90567471 41.63642,37.66841271 11.56496,5.023835 35.03719,20.193245 35.03719,20.193245 0,0 115.21367,-0.593951 83.30444,50.032974 -21.75699,14.45957 -70.35933,6.31403 -103.22281,-0.96753 -37.76392,-7.756086 -71.09876,-27.602732 -98.5088,-54.337907 z"
    />
    <path
      id="w"
      fill="none"
      stroke="currentColor"
      style="stroke-width:30.1433;stroke-linecap:butt"
      d="m 288.9004,218.35163 c 1.59994,1.16498 3.37736,3.35414 5.01874,5.18633 18.03452,20.13092 42.48766,56.93832 42.48766,108.5427 0,88.30911 -71.77232,159.89779 -160.30795,159.89779 -88.535634,0 -160.30795,-71.58868 -160.307956,-159.89779 0,-88.30912 71.772318,-159.8978 160.307956,-159.8978 29.47055,0 53.30522,7.98988 69.58424,15.81186 2.4152,1.16048 2.78902,1.45739 4.9245,2.61448"
    />
  </g>
</svg>
